<?xml version="1.0" encoding="UTF-8"?>
<svg xmlns="http://www.w3.org/2000/svg" xmlns:xlink="http://www.w3.org/1999/xlink" width="px" height="44px" viewBox="0 0 68 44" version="1.1">
<g id="surface1">
<path style=" stroke:none;fill-rule:nonzero;fill:rgb(0%,0%,0%);fill-opacity:1;" d="M 61.9375 0 L 6.09375 0 C 5.859375 0 5.625 0 5.394531 0 C 5.199219 0.00390625 5.003906 0.00390625 4.808594 0.0117188 C 4.378906 0.0234375 3.949219 0.046875 3.527344 0.125 C 3.097656 0.203125 2.699219 0.328125 2.3125 0.527344 C 1.929688 0.722656 1.578125 0.980469 1.277344 1.285156 C 0.972656 1.589844 0.71875 1.945312 0.523438 2.328125 C 0.324219 2.722656 0.199219 3.121094 0.121094 3.554688 C 0.046875 3.980469 0.0195312 4.414062 0.0117188 4.84375 C 0.00390625 5.039062 0.00390625 5.238281 0 5.433594 C 0 5.671875 0 5.902344 0 6.140625 L 0 37.742188 C 0 37.980469 0 38.210938 0 38.449219 C 0.00390625 38.644531 0.00390625 38.84375 0.0117188 39.039062 C 0.0195312 39.46875 0.046875 39.902344 0.121094 40.328125 C 0.199219 40.761719 0.324219 41.160156 0.523438 41.554688 C 0.71875 41.9375 0.972656 42.292969 1.277344 42.597656 C 1.578125 42.902344 1.929688 43.160156 2.3125 43.355469 C 2.699219 43.554688 3.097656 43.683594 3.527344 43.757812 C 3.949219 43.835938 4.378906 43.859375 4.808594 43.871094 C 5.003906 43.878906 5.199219 43.878906 5.394531 43.878906 C 5.625 43.882812 5.859375 43.882812 6.09375 43.882812 L 61.9375 43.882812 C 62.171875 43.882812 62.402344 43.882812 62.636719 43.878906 C 62.832031 43.878906 63.027344 43.878906 63.226562 43.871094 C 63.652344 43.859375 64.082031 43.835938 64.503906 43.757812 C 64.933594 43.683594 65.332031 43.554688 65.71875 43.355469 C 66.101562 43.160156 66.453125 42.902344 66.753906 42.597656 C 67.058594 42.292969 67.3125 41.9375 67.507812 41.554688 C 67.707031 41.160156 67.832031 40.761719 67.910156 40.328125 C 67.984375 39.902344 68.007812 39.46875 68.019531 39.039062 C 68.027344 38.84375 68.027344 38.644531 68.03125 38.449219 C 68.03125 38.210938 68.03125 37.980469 68.03125 37.742188 L 68.03125 6.140625 C 68.03125 5.902344 68.03125 5.671875 68.03125 5.433594 C 68.027344 5.238281 68.027344 5.039062 68.019531 4.84375 C 68.007812 4.414062 67.984375 3.980469 67.910156 3.554688 C 67.832031 3.121094 67.707031 2.722656 67.507812 2.328125 C 67.3125 1.945312 67.058594 1.589844 66.753906 1.285156 C 66.453125 0.980469 66.101562 0.722656 65.71875 0.527344 C 65.332031 0.328125 64.933594 0.203125 64.503906 0.125 C 64.082031 0.046875 63.652344 0.0234375 63.226562 0.0117188 C 63.027344 0.00390625 62.832031 0.00390625 62.636719 0 C 62.402344 0 62.171875 0 61.9375 0 Z M 61.9375 0 "/>
<path style=" stroke:none;fill-rule:nonzero;fill:rgb(100%,100%,100%);fill-opacity:1;" d="M 61.9375 1.460938 L 62.625 1.464844 C 62.8125 1.464844 63 1.46875 63.183594 1.472656 C 63.511719 1.480469 63.890625 1.5 64.246094 1.5625 C 64.554688 1.621094 64.8125 1.703125 65.0625 1.832031 C 65.308594 1.957031 65.53125 2.121094 65.726562 2.320312 C 65.925781 2.519531 66.089844 2.746094 66.214844 2.996094 C 66.339844 3.242188 66.425781 3.5 66.480469 3.816406 C 66.542969 4.167969 66.5625 4.554688 66.570312 4.882812 C 66.574219 5.070312 66.578125 5.257812 66.578125 5.445312 C 66.578125 5.675781 66.578125 5.90625 66.578125 6.140625 L 66.578125 37.742188 C 66.578125 37.976562 66.578125 38.207031 66.578125 38.441406 C 66.578125 38.625 66.574219 38.8125 66.570312 39 C 66.5625 39.328125 66.542969 39.714844 66.480469 40.070312 C 66.425781 40.378906 66.339844 40.640625 66.214844 40.890625 C 66.089844 41.140625 65.925781 41.367188 65.730469 41.5625 C 65.53125 41.761719 65.308594 41.925781 65.058594 42.050781 C 64.8125 42.179688 64.554688 42.265625 64.25 42.320312 C 63.886719 42.382812 63.492188 42.402344 63.191406 42.410156 C 63.003906 42.414062 62.816406 42.417969 62.625 42.417969 C 62.398438 42.417969 62.167969 42.417969 61.9375 42.417969 L 6.082031 42.417969 C 5.859375 42.417969 5.632812 42.417969 5.402344 42.417969 C 5.214844 42.417969 5.027344 42.414062 4.847656 42.410156 C 4.539062 42.402344 4.144531 42.382812 3.785156 42.320312 C 3.476562 42.265625 3.21875 42.179688 2.96875 42.050781 C 2.722656 41.925781 2.5 41.761719 2.300781 41.5625 C 2.105469 41.363281 1.941406 41.140625 1.816406 40.890625 C 1.691406 40.640625 1.605469 40.378906 1.550781 40.066406 C 1.488281 39.710938 1.46875 39.328125 1.460938 39 C 1.457031 38.8125 1.453125 38.625 1.453125 38.4375 L 1.453125 5.445312 C 1.453125 5.257812 1.457031 5.070312 1.460938 4.882812 C 1.46875 4.554688 1.488281 4.171875 1.550781 3.8125 C 1.605469 3.503906 1.691406 3.242188 1.816406 2.992188 C 1.941406 2.742188 2.105469 2.519531 2.300781 2.320312 C 2.5 2.121094 2.722656 1.957031 2.96875 1.832031 C 3.21875 1.703125 3.476562 1.621094 3.785156 1.5625 C 4.140625 1.5 4.519531 1.480469 4.847656 1.472656 C 5.03125 1.46875 5.21875 1.464844 5.402344 1.464844 L 6.09375 1.460938 L 61.9375 1.460938 "/>
<path style=" stroke:none;fill-rule:nonzero;fill:rgb(0%,0%,0%);fill-opacity:1;" d="M 18.570312 14.757812 C 19.15625 14.027344 19.550781 13.039062 19.445312 12.03125 C 18.59375 12.074219 17.550781 12.597656 16.949219 13.335938 C 16.410156 13.964844 15.929688 14.988281 16.054688 15.957031 C 17.011719 16.039062 17.96875 15.472656 18.570312 14.757812 M 19.433594 16.144531 C 18.042969 16.058594 16.863281 16.9375 16.199219 16.9375 C 15.535156 16.9375 14.519531 16.1875 13.417969 16.207031 C 11.988281 16.226562 10.660156 17.042969 9.933594 18.339844 C 8.441406 20.933594 9.539062 24.78125 10.992188 26.894531 C 11.699219 27.9375 12.546875 29.089844 13.667969 29.046875 C 14.726562 29.007812 15.140625 28.355469 16.425781 28.355469 C 17.710938 28.355469 18.085938 29.046875 19.207031 29.027344 C 20.367188 29.007812 21.09375 27.980469 21.800781 26.933594 C 22.609375 25.742188 22.941406 24.59375 22.960938 24.53125 C 22.941406 24.507812 20.722656 23.652344 20.699219 21.078125 C 20.679688 18.925781 22.441406 17.902344 22.527344 17.835938 C 21.53125 16.351562 19.972656 16.1875 19.433594 16.144531 M 31.539062 13.230469 C 34.558594 13.230469 36.664062 15.328125 36.664062 18.382812 C 36.664062 21.449219 34.515625 23.558594 31.464844 23.558594 L 28.117188 23.558594 L 28.117188 28.917969 L 25.699219 28.917969 L 25.699219 13.230469 Z M 28.117188 21.511719 L 30.890625 21.511719 C 32.996094 21.511719 34.191406 20.371094 34.191406 18.394531 C 34.191406 16.414062 32.996094 15.285156 30.902344 15.285156 L 28.117188 15.285156 Z M 37.296875 25.667969 C 37.296875 23.667969 38.816406 22.4375 41.515625 22.285156 L 44.621094 22.101562 L 44.621094 21.21875 C 44.621094 19.949219 43.769531 19.1875 42.347656 19.1875 C 40.996094 19.1875 40.15625 19.839844 39.949219 20.859375 L 37.75 20.859375 C 37.878906 18.796875 39.625 17.273438 42.433594 17.273438 C 45.183594 17.273438 46.941406 18.742188 46.941406 21.035156 L 46.941406 28.917969 L 44.707031 28.917969 L 44.707031 27.035156 L 44.65625 27.035156 C 43.996094 28.308594 42.5625 29.113281 41.074219 29.113281 C 38.847656 29.113281 37.296875 27.722656 37.296875 25.667969 Z M 44.621094 24.632812 L 44.621094 23.730469 L 41.828125 23.90625 C 40.433594 24.003906 39.648438 24.621094 39.648438 25.601562 C 39.648438 26.601562 40.46875 27.253906 41.71875 27.253906 C 43.347656 27.253906 44.621094 26.125 44.621094 24.632812 Z M 49.050781 33.125 L 49.050781 31.222656 C 49.222656 31.265625 49.613281 31.265625 49.804688 31.265625 C 50.886719 31.265625 51.46875 30.808594 51.824219 29.636719 C 51.824219 29.613281 52.027344 28.9375 52.027344 28.929688 L 47.929688 17.480469 L 50.453125 17.480469 L 53.324219 26.785156 L 53.367188 26.785156 L 56.238281 17.480469 L 58.699219 17.480469 L 54.445312 29.515625 C 53.476562 32.289062 52.351562 33.179688 50 33.179688 C 49.804688 33.179688 49.222656 33.15625 49.050781 33.125 Z M 49.050781 33.125 "/>
</g>
</svg>
