<?xml version="1.0" encoding="UTF-8" standalone="no"?>
<svg
   width="218.10033"
   height="139.62601"
   enable-background="new 0 0 165.52107 105.9651"
   xml:space="preserve"
   version="1.1"
   id="svg8"
   sodipodi:docname="Apple_Pay_Mark_RGB_041619.svg"
   inkscape:version="1.2 (dc2aedaf03, 2022-05-15)"
   xmlns:inkscape="http://www.inkscape.org/namespaces/inkscape"
   xmlns:sodipodi="http://sodipodi.sourceforge.net/DTD/sodipodi-0.dtd"
   xmlns="http://www.w3.org/2000/svg"
   xmlns:svg="http://www.w3.org/2000/svg"><defs
   id="defs12" /><sodipodi:namedview
   id="namedview10"
   pagecolor="#505050"
   bordercolor="#ffffff"
   borderopacity="1"
   inkscape:showpageshadow="0"
   inkscape:pageopacity="0"
   inkscape:pagecheckerboard="1"
   inkscape:deskcolor="#505050"
   showgrid="false"
   inkscape:zoom="2.9506435"
   inkscape:cx="101.50328"
   inkscape:cy="86.930189"
   inkscape:window-width="1920"
   inkscape:window-height="1015"
   inkscape:window-x="0"
   inkscape:window-y="0"
   inkscape:window-maximized="1"
   inkscape:current-layer="svg8" />
  <path
   d="M 198.56937,1.4e-6 H 19.531961 c -0.745666,0 -1.49265,0 -2.236985,0.00435 -0.629197,0.00448 -1.256932,0.011464 -1.884667,0.028593 -1.369052,0.037026 -2.749832,0.1177991 -4.101755,0.3607763 C 9.9350207,0.640913 8.6568873,1.0441181 7.4099822,1.6789684 6.1841597,2.3023551 5.0619056,3.1177253 4.0893513,4.0906881 3.1163755,5.063651 2.3010053,6.1840604 1.6777504,7.4112005 1.0427683,8.6581056 0.63929971,9.9366344 0.39381891,11.311221 c -0.2442816,1.352318 -0.3255946,2.732834 -0.3624892,4.100437 -0.016866,0.627735 -0.0241,1.25547 -0.028198,1.883073 -0.004348,0.74593 -0.002899998,1.491332 -0.002899998,2.238579 V 120.0945 c 0,0.74725 -0.001449002,1.49134 0.002899998,2.23872 0.0041,0.6276 0.011332,1.25534 0.028198,1.88307 0.036895,1.36641 0.1182076,2.74693 0.3624892,4.09885 0.2454808,1.37511 0.64894939,2.65311 1.28393149,3.90015 0.6232549,1.22714 1.4386251,2.349 2.4116009,3.32051 0.9725543,0.97455 2.0948084,1.78979 3.3206309,2.41159 1.2469051,0.63656 2.5250385,1.0399 3.8985718,1.28696 1.351923,0.2414 2.732703,0.32362 4.101755,0.36065 0.627735,0.0142 1.25547,0.0227 1.884667,0.0256 0.744335,0.005 1.491319,0.005 2.236985,0.005 H 198.56937 c 0.74434,0 1.49134,0 2.23553,-0.005 0.62775,-0.003 1.2555,-0.0119 1.8861,-0.0256 1.36616,-0.037 2.74667,-0.11925 4.1019,-0.36065 1.37169,-0.24706 2.65009,-0.6504 3.89713,-1.28696 1.22714,-0.6218 2.3461,-1.43704 3.32065,-2.41159 0.97138,-0.97151 1.78674,-2.09337 2.41159,-3.32051 0.63642,-1.24704 1.03949,-2.52504 1.28379,-3.90015 0.24442,-1.35192 0.32375,-2.73244 0.36077,-4.09885 0.0171,-0.62773 0.0256,-1.25547 0.0285,-1.88307 0.005,-0.74738 0.005,-1.49146 0.005,-2.23872 V 19.53331 c 0,-0.747247 0,-1.492649 -0.005,-2.238579 -0.003,-0.627603 -0.0119,-1.255338 -0.0285,-1.883073 -0.037,-1.367603 -0.11635,-2.748119 -0.36077,-4.100437 C 217.46178,9.9366344 217.05869,8.6581056 216.42227,7.4112005 215.79742,6.1840604 214.98206,5.063651 214.01068,4.0906881 213.03613,3.1177253 211.91717,2.3023551 210.69003,1.6789684 209.44299,1.0441181 208.16459,0.640913 206.7929,0.3937193 205.43769,0.1507421 204.05717,0.0699693 202.691,0.032943 202.0604,0.015813 201.43265,0.00883 200.8049,0.00435 200.06071,0 199.31371,0 198.56937,0 Z"
   id="path2"
   style="stroke-width:1.31766" />
  <path
   fill="#ffffff"
   d="m 198.56937,4.6539893 2.20246,0.00422 c 0.59663,0.00422 1.19329,0.010673 1.79323,0.027012 1.0436,0.028198 2.26439,0.084726 3.40233,0.2887001 0.98917,0.1781481 1.81876,0.4490597 2.6149,0.8543731 0.78599,0.3993838 1.5061,0.9227598 2.13487,1.5506265 0.63116,0.6320833 1.15521,1.3533724 1.55986,2.1480554 0.40306,0.7899386 0.67226,1.6155866 0.84935,2.6120036 0.20345,1.125548 0.25971,2.349658 0.28832,3.399704 0.0161,0.592685 0.024,1.18537 0.0269,1.792154 0.005,0.733807 0.005,1.467219 0.005,2.202475 V 120.0945 c 0,0.73525 1.2e-4,1.46735 -0.005,2.21684 -0.003,0.59255 -0.0105,1.18523 -0.0269,1.77897 -0.0285,1.04847 -0.0847,2.27192 -0.29068,3.41078 -0.1746,0.98271 -0.44365,1.80849 -0.84895,2.60238 -0.40349,0.79271 -0.92673,1.51321 -1.55514,2.14134 -0.63233,0.63247 -1.35007,1.15427 -2.1454,1.55734 -0.79021,0.40334 -1.61837,0.674 -2.59779,0.85029 -1.16098,0.20687 -2.43292,0.2638 -3.39086,0.28976 -0.6027,0.0136 -1.2025,0.0217 -1.81692,0.0246 -0.73223,0.005 -1.46708,0.005 -2.19944,0.005 H 19.50284 c -0.723924,0 -1.449298,0 -2.186399,-0.005 -0.600986,-0.003 -1.200655,-0.0105 -1.780427,-0.024 -0.979815,-0.0265 -2.252546,-0.0833 -3.404052,-0.28896 -0.987839,-0.17762 -1.816004,-0.44827 -2.6166173,-0.85688 -0.7878174,-0.39951 -1.5050349,-0.92078 -2.1376452,-1.55444 -0.627735,-0.62682 -1.149398,-1.34507 -1.5527349,-2.13897 -0.4037321,-0.7931 -0.6738532,-1.62138 -0.851461,-2.61582 -0.2053052,-1.13662 -0.2617012,-2.3552 -0.289886,-3.39654 -0.016089,-0.59625 -0.022809,-1.19236 -0.02663,-1.78504 l -0.0029,-1.74973 1.318e-4,-0.46197 V 19.53331 l -1.318e-4,-0.461973 0.00277,-1.746036 c 0.00395,-0.596243 0.010673,-1.192354 0.026762,-1.788069 0.028185,-1.042404 0.084581,-2.261506 0.2915858,-3.40761 C 5.1512432,11.144141 5.4212325,10.315858 5.8270729,9.5188034 6.2272473,8.7309724 6.7498327,8.0117916 7.380875,7.3808942 8.0094006,6.7521051 8.7289635,6.229388 9.5218017,5.8261829 10.31385,5.4228461 11.143582,5.1520662 12.131435,4.9743134 13.269633,4.769812 14.491239,4.713416 15.537464,4.6850862 c 0.596374,-0.016207 1.192749,-0.022664 1.784643,-0.026749 l 2.209854,-0.00435 H 198.56937"
   id="path4"
   style="stroke-width:1.31766" />
  <path
   d="m 59.540208,46.962231 c 1.867446,-2.335769 3.134682,-5.47202 2.800457,-8.676894 -2.733678,0.13593 -6.069607,1.8035 -8.000946,4.141101 -1.734137,2.001794 -3.268992,5.269363 -2.868857,8.339888 3.068694,0.266181 6.134555,-1.533866 8.069346,-3.804095 M 62.3058,51.36585 c -4.456484,-0.265457 -8.245584,2.529268 -10.373782,2.529268 -2.129371,0 -5.388335,-2.395499 -8.913177,-2.330933 -4.587802,0.06739 -8.844752,2.661364 -11.172866,6.787008 -4.788534,8.253318 -1.263692,20.495876 3.392905,27.217739 2.261348,3.32552 4.986659,6.987162 8.577674,6.855633 3.392905,-0.133137 4.722783,-2.196967 8.847005,-2.196967 4.12119,0 5.319131,2.196967 8.910726,2.130412 3.724574,-0.06659 6.053097,-3.32718 8.314418,-6.655941 2.59419,-3.790918 3.656161,-7.451361 3.722954,-7.652305 -0.06681,-0.06655 -7.182031,-2.796135 -7.248007,-10.980855 -0.06717,-6.853182 5.586248,-10.112937 5.852324,-10.315093 -3.192541,-4.721782 -8.18082,-5.254197 -9.910174,-5.387966 m 38.8036,-9.274652 c 9.68609,0 16.43087,6.676707 16.43087,16.397493 0,9.755494 -6.88357,16.466896 -16.67375,16.466896 H 90.142155 V 92.010344 H 82.393806 V 42.091185 H 101.1094 Z M 90.142142,68.451704 h 8.890696 c 6.746112,0 10.585582,-3.631955 10.585582,-9.928318 0,-6.295692 -3.83947,-9.893612 -10.550882,-9.893612 h -8.925396 z m 29.422618,13.215297 c 0,-6.365765 4.87775,-10.274627 13.52691,-10.759066 l 9.96234,-0.587863 v -2.801867 c 0,-4.047665 -2.73314,-6.469188 -7.29861,-6.469188 -4.32524,0 -7.02368,2.075215 -7.68027,5.327486 h -7.05707 c 0.41505,-6.573284 6.01879,-11.41633 15.01359,-11.41633 8.82131,0 14.45974,4.670221 14.45974,11.969498 v 25.080686 h -7.16113 v -5.984749 h -0.17216 c -2.1099,4.047665 -6.7114,6.607306 -11.48505,6.607306 -7.12646,0 -12.10829,-4.428009 -12.10829,-10.965913 z m 23.48925,-3.286306 V 75.50944 l -8.96011,0.553168 c -4.46271,0.311615 -6.98765,2.283393 -6.98765,5.396874 0,3.18221 2.62904,5.258084 6.64201,5.258084 5.22339,0 9.30575,-3.59792 9.30575,-8.336871 z m 14.19817,27.017765 v -6.054131 c 0.55249,0.13813 1.79762,0.13813 2.42085,0.13813 3.45913,0 5.32748,-1.452661 6.46851,-5.188696 0,-0.0694 0.65793,-2.214004 0.65793,-2.248698 L 153.65424,55.617437 h 8.09399 l 9.20298,29.61279 h 0.13746 l 9.203,-29.61279 h 7.88714 l -13.63101,38.29531 c -3.11213,8.821983 -6.71007,11.658543 -14.25154,11.658543 -0.62322,0 -2.49157,-0.0694 -3.04408,-0.17283 z"
   id="path6"
   style="stroke-width:1.31766" />
</svg>
