<?xml version="1.0" encoding="UTF-8"?>
<svg xmlns="http://www.w3.org/2000/svg" xmlns:xlink="http://www.w3.org/1999/xlink" width="px" height="44px" viewBox="0 0 82 44" version="1.1">
<g id="surface1">
<path style=" stroke:none;fill-rule:nonzero;fill:rgb(100%,100%,100%);fill-opacity:1;" d="M 60.191406 0 L 21.808594 0 C 9.8125 0 0 9.898438 0 22 C 0 34.101562 9.8125 44 21.808594 44 L 60.191406 44 C 72.1875 44 82 34.101562 82 22 C 82 9.898438 72.1875 0 60.191406 0 Z M 60.191406 0 "/>
<path style=" stroke:none;fill-rule:nonzero;fill:rgb(23.529412%,25.098039%,26.27451%);fill-opacity:1;" d="M 60.191406 1.78125 C 62.886719 1.78125 65.5 2.320312 67.964844 3.378906 C 70.355469 4.398438 72.492188 5.863281 74.34375 7.722656 C 76.1875 9.582031 77.636719 11.746094 78.652344 14.15625 C 79.699219 16.644531 80.234375 19.28125 80.234375 22 C 80.234375 24.71875 79.699219 27.355469 78.652344 29.84375 C 77.636719 32.253906 76.1875 34.40625 74.34375 36.277344 C 72.503906 38.136719 70.355469 39.601562 67.964844 40.621094 C 65.5 41.679688 62.886719 42.21875 60.191406 42.21875 L 21.808594 42.21875 C 19.113281 42.21875 16.5 41.679688 14.035156 40.621094 C 11.644531 39.601562 9.507812 38.136719 7.65625 36.277344 C 5.8125 34.417969 4.363281 32.253906 3.347656 29.84375 C 2.300781 27.355469 1.765625 24.71875 1.765625 22 C 1.765625 19.28125 2.300781 16.644531 3.347656 14.15625 C 4.363281 11.746094 5.8125 9.59375 7.65625 7.722656 C 9.496094 5.863281 11.644531 4.398438 14.035156 3.378906 C 16.5 2.320312 19.113281 1.78125 21.808594 1.78125 L 60.191406 1.78125 M 60.191406 0 L 21.808594 0 C 9.8125 0 0 9.898438 0 22 C 0 34.101562 9.8125 44 21.808594 44 L 60.191406 44 C 72.1875 44 82 34.101562 82 22 C 82 9.898438 72.1875 0 60.191406 0 Z M 60.191406 0 "/>
<path style=" stroke:none;fill-rule:nonzero;fill:rgb(23.529412%,25.098039%,26.27451%);fill-opacity:1;" d="M 39.101562 23.5625 L 39.101562 30.21875 L 37.007812 30.21875 L 37.007812 13.78125 L 42.558594 13.78125 C 43.964844 13.78125 45.164062 14.257812 46.148438 15.203125 C 47.148438 16.148438 47.652344 17.304688 47.652344 18.667969 C 47.652344 20.0625 47.148438 21.21875 46.148438 22.152344 C 45.175781 23.089844 43.976562 23.550781 42.558594 23.550781 L 39.101562 23.550781 Z M 39.101562 15.808594 L 39.101562 21.539062 L 42.601562 21.539062 C 43.433594 21.539062 44.128906 21.253906 44.675781 20.691406 C 45.230469 20.128906 45.515625 19.449219 45.515625 18.679688 C 45.515625 17.917969 45.230469 17.246094 44.675781 16.6875 C 44.128906 16.105469 43.441406 15.816406 42.601562 15.816406 L 39.101562 15.816406 Z M 53.125 18.601562 C 54.675781 18.601562 55.894531 19.019531 56.789062 19.855469 C 57.683594 20.691406 58.128906 21.835938 58.128906 23.285156 L 58.128906 30.21875 L 56.136719 30.21875 L 56.136719 28.65625 L 56.046875 28.65625 C 55.1875 29.941406 54.03125 30.578125 52.589844 30.578125 C 51.359375 30.578125 50.335938 30.21875 49.503906 29.480469 C 48.675781 28.742188 48.261719 27.828125 48.261719 26.730469 C 48.261719 25.5625 48.699219 24.640625 49.570312 23.957031 C 50.441406 23.265625 51.609375 22.925781 53.058594 22.925781 C 54.304688 22.925781 55.328125 23.15625 56.125 23.617188 L 56.125 23.132812 C 56.125 22.394531 55.839844 21.78125 55.261719 21.261719 C 54.683594 20.746094 54.007812 20.492188 53.234375 20.492188 C 52.066406 20.492188 51.140625 20.988281 50.464844 21.988281 L 48.621094 20.824219 C 49.636719 19.339844 51.140625 18.601562 53.125 18.601562 Z M 50.421875 26.761719 C 50.421875 27.3125 50.648438 27.773438 51.121094 28.136719 C 51.578125 28.5 52.121094 28.6875 52.742188 28.6875 C 53.628906 28.6875 54.414062 28.359375 55.097656 27.699219 C 55.785156 27.039062 56.136719 26.269531 56.136719 25.378906 C 55.480469 24.859375 54.574219 24.597656 53.410156 24.597656 C 52.558594 24.597656 51.851562 24.804688 51.28125 25.210938 C 50.703125 25.640625 50.421875 26.15625 50.421875 26.761719 Z M 69.515625 18.964844 L 62.535156 35.15625 L 60.375 35.15625 L 62.972656 29.492188 L 58.371094 18.964844 L 60.648438 18.964844 L 63.964844 27.039062 L 64.007812 27.039062 L 67.234375 18.964844 Z M 69.515625 18.964844 "/>
<path style=" stroke:none;fill-rule:nonzero;fill:rgb(25.882353%,52.156863%,95.686275%);fill-opacity:1;" d="M 30.773438 22.21875 C 30.773438 21.53125 30.714844 20.871094 30.601562 20.238281 L 21.824219 20.238281 L 21.824219 23.867188 L 26.878906 23.871094 C 26.675781 25.078125 26.015625 26.105469 25.003906 26.792969 L 25.003906 29.148438 L 28.011719 29.148438 C 29.769531 27.507812 30.773438 25.085938 30.773438 22.21875 Z M 30.773438 22.21875 "/>
<path style=" stroke:none;fill-rule:nonzero;fill:rgb(20.392157%,65.882353%,32.54902%);fill-opacity:1;" d="M 25.003906 26.792969 C 24.167969 27.363281 23.089844 27.695312 21.828125 27.695312 C 19.390625 27.695312 17.324219 26.039062 16.582031 23.808594 L 13.480469 23.808594 L 13.480469 26.234375 C 15.015625 29.3125 18.175781 31.425781 21.828125 31.425781 C 24.351562 31.425781 26.46875 30.589844 28.011719 29.148438 Z M 25.003906 26.792969 "/>
<path style=" stroke:none;fill-rule:nonzero;fill:rgb(98.039216%,73.333333%,1.960784%);fill-opacity:1;" d="M 16.289062 22.003906 C 16.289062 21.378906 16.394531 20.773438 16.582031 20.203125 L 16.582031 17.773438 L 13.480469 17.773438 C 12.84375 19.046875 12.484375 20.484375 12.484375 22.003906 C 12.484375 23.527344 12.84375 24.964844 13.480469 26.238281 L 16.582031 23.808594 C 16.394531 23.238281 16.289062 22.632812 16.289062 22.003906 Z M 16.289062 22.003906 "/>
<path style=" stroke:none;fill-rule:nonzero;fill:rgb(91.372549%,25.882353%,20.784314%);fill-opacity:1;" d="M 21.828125 16.3125 C 23.203125 16.3125 24.4375 16.792969 25.410156 17.726562 L 28.078125 15.039062 C 26.457031 13.519531 24.347656 12.585938 21.828125 12.585938 C 18.175781 12.585938 15.015625 14.695312 13.480469 17.773438 L 16.582031 20.203125 C 17.324219 17.96875 19.390625 16.3125 21.828125 16.3125 Z M 21.828125 16.3125 "/>
</g>
</svg>
