<svg xmlns="http://www.w3.org/2000/svg" viewBox="0 0 512 256"><svg xmlns="http://www.w3.org/2000/svg" xmlns:xlink="http://www.w3.org/1999/xlink" version="1.1" width="256" height="256" viewBox="0 0 256 256" xml:space="preserve" x="0"><defs></defs><g style="stroke: none; stroke-width: 0; stroke-dasharray: none; stroke-linecap: butt; stroke-linejoin: miter; stroke-miterlimit: 10; fill: none; fill-rule: nonzero; opacity: 1;" transform="translate(1.4065934065934016 1.4065934065934016) scale(2.81 2.81)">	<path d="M 84.259 16.068 H 5.741 C 2.57 16.068 0 18.638 0 21.809 v 8.131 h 90 v -8.131 C 90 18.638 87.43 16.068 84.259 16.068 z" style="stroke: none; stroke-width: 1; stroke-dasharray: none; stroke-linecap: butt; stroke-linejoin: miter; stroke-miterlimit: 10; fill: rgb(27,77,162); fill-rule: nonzero; opacity: 1;" transform=" matrix(1 0 0 1 0 0) " stroke-linecap="round" />	<path d="M 0 60.06 v 8.131 c 0 3.171 2.57 5.741 5.741 5.741 h 78.518 c 3.171 0 5.741 -2.57 5.741 -5.741 V 60.06 H 0 z" style="stroke: none; stroke-width: 1; stroke-dasharray: none; stroke-linecap: butt; stroke-linejoin: miter; stroke-miterlimit: 10; fill: rgb(244,169,41); fill-rule: nonzero; opacity: 1;" transform=" matrix(1 0 0 1 0 0) " stroke-linecap="round" />	<rect x="0" y="27.94" rx="0" ry="0" width="90" height="34.12" style="stroke: none; stroke-width: 1; stroke-dasharray: none; stroke-linecap: butt; stroke-linejoin: miter; stroke-miterlimit: 10; fill: rgb(240,240,240); fill-rule: nonzero; opacity: 1;" transform=" matrix(1 0 0 1 0 0) " />	<path d="M 9.259 34.213 c 0.96 -0.494 2.058 -0.295 3.089 -0.314 c 2.362 0.062 4.728 -0.057 7.09 0.048 c 1.064 -0.005 1.977 0.879 2.124 1.91 c 0.741 3.592 1.421 7.199 2.148 10.801 c -1.202 -4.22 -4.376 -7.665 -8.107 -9.855 C 13.631 35.619 11.43 34.93 9.259 34.213 z" style="stroke: none; stroke-width: 1; stroke-dasharray: none; stroke-linecap: butt; stroke-linejoin: miter; stroke-miterlimit: 10; fill: rgb(244,169,41); fill-rule: nonzero; opacity: 1;" transform=" matrix(1 0 0 1 0 0) " stroke-linecap="round" />	<path d="M 29.806 33.909 c 2.048 0.024 4.091 0.014 6.135 0 c -3.108 7.427 -6.006 14.94 -9.181 22.339 c -1.996 -0.062 -3.992 -0.033 -5.987 -0.033 c -1.768 -6.458 -3.417 -12.949 -5.17 -19.411 c 3.73 2.191 6.904 5.636 8.107 9.855 c 0.181 0.817 0.309 1.654 0.466 2.48 C 26.038 44.059 27.924 38.984 29.806 33.909 z" style="stroke: none; stroke-width: 1; stroke-dasharray: none; stroke-linecap: butt; stroke-linejoin: miter; stroke-miterlimit: 10; fill: rgb(27,77,162); fill-rule: nonzero; opacity: 1;" transform=" matrix(1 0 0 1 0 0) " stroke-linecap="round" />	<path d="M 38.236 33.899 c 1.925 0.014 3.849 0.014 5.774 0 c -1.183 7.441 -2.428 14.873 -3.583 22.32 c -1.915 0.005 -3.83 0.005 -5.75 0 C 35.779 48.768 37.076 41.345 38.236 33.899 z" style="stroke: none; stroke-width: 1; stroke-dasharray: none; stroke-linecap: butt; stroke-linejoin: miter; stroke-miterlimit: 10; fill: rgb(27,77,162); fill-rule: nonzero; opacity: 1;" transform=" matrix(1 0 0 1 0 0) " stroke-linecap="round" />	<path d="M 49.483 35.301 c 3.45 -2.267 7.959 -2.2 11.775 -0.946 c -0.176 1.649 -0.451 3.284 -0.737 4.913 c -2.029 -0.974 -4.395 -1.407 -6.6 -0.841 c -1.041 0.247 -2.067 1.54 -1.202 2.509 c 1.777 1.82 4.576 2.233 6.249 4.215 c 1.939 1.896 1.867 5.089 0.546 7.308 c -1.397 2.343 -4.087 3.569 -6.705 3.92 c -2.96 0.309 -6.044 0.124 -8.819 -1.022 c 0.295 -1.663 0.542 -3.336 0.841 -4.999 c 2.4 1.24 5.184 1.863 7.86 1.269 c 0.908 -0.304 1.844 -1.05 1.763 -2.115 c -0.299 -1.269 -1.625 -1.81 -2.656 -2.385 c -2.001 -0.984 -4.153 -2.191 -5.051 -4.353 C 45.63 40.043 47.107 36.845 49.483 35.301 z" style="stroke: none; stroke-width: 1; stroke-dasharray: none; stroke-linecap: butt; stroke-linejoin: miter; stroke-miterlimit: 10; fill: rgb(27,77,162); fill-rule: nonzero; opacity: 1;" transform=" matrix(1 0 0 1 0 0) " stroke-linecap="round" />	<path d="M 76.07 33.928 c -1.768 0.033 -3.545 -0.071 -5.313 0.052 c -1.202 0.062 -1.963 1.178 -2.347 2.205 c -2.78 6.691 -5.593 13.367 -8.378 20.053 c 2.015 -0.005 4.03 -0.005 6.044 -0.005 c 0.423 -1.117 0.832 -2.243 1.226 -3.369 c 2.461 0.014 4.923 0.01 7.389 0.01 c 0.228 1.126 0.466 2.248 0.718 3.364 c 1.777 -0.005 3.554 -0.005 5.332 -0.01 C 79.183 48.796 77.652 41.36 76.07 33.928 z M 68.98 48.273 c 1.074 -2.761 1.953 -5.602 3.155 -8.311 c 0.356 2.804 1.055 5.55 1.63 8.316 C 72.169 48.278 70.577 48.278 68.98 48.273 z" style="stroke: none; stroke-width: 1; stroke-dasharray: none; stroke-linecap: butt; stroke-linejoin: miter; stroke-miterlimit: 10; fill: rgb(27,77,162); fill-rule: nonzero; opacity: 1;" transform=" matrix(1 0 0 1 0 0) " stroke-linecap="round" />	<path d="M 4 68.191 V 62.06 H 0 v 6.131 c 0 3.171 2.57 5.741 5.741 5.741 h 4 C 6.57 73.932 4 71.362 4 68.191 z" style="stroke: none; stroke-width: 1; stroke-dasharray: none; stroke-linecap: butt; stroke-linejoin: miter; stroke-miterlimit: 10; fill: rgb(215,149,36); fill-rule: nonzero; opacity: 1;" transform=" matrix(1 0 0 1 0 0) " stroke-linecap="round" />	<path d="M 4 21.809 c 0 -3.171 2.57 -5.741 5.741 -5.741 h -4 C 2.57 16.068 0 18.638 0 21.809 v 6.131 h 4 V 21.809 z" style="stroke: none; stroke-width: 1; stroke-dasharray: none; stroke-linecap: butt; stroke-linejoin: miter; stroke-miterlimit: 10; fill: rgb(20,62,132); fill-rule: nonzero; opacity: 1;" transform=" matrix(1 0 0 1 0 0) " stroke-linecap="round" />	<polygon points="4,60.06 4,29.94 4,27.94 0,27.94 0,62.06 4,62.06 " style="stroke: none; stroke-width: 1; stroke-dasharray: none; stroke-linecap: butt; stroke-linejoin: miter; stroke-miterlimit: 10; fill: rgb(212,212,212); fill-rule: nonzero; opacity: 1;" transform="  matrix(1 0 0 1 0 0) " /></g></svg><svg xmlns="http://www.w3.org/2000/svg" xmlns:xlink="http://www.w3.org/1999/xlink" version="1.1" width="256" height="256" viewBox="0 0 256 256" xml:space="preserve" x="256"><defs></defs><g style="stroke: none; stroke-width: 0; stroke-dasharray: none; stroke-linecap: butt; stroke-linejoin: miter; stroke-miterlimit: 10; fill: none; fill-rule: nonzero; opacity: 1;" transform="translate(1.4065934065934016 1.4065934065934016) scale(2.81 2.81)">	<path d="M 84.259 16.068 H 5.741 C 2.57 16.068 0 18.638 0 21.809 v 6.131 v 2 V 60.06 v 2 v 6.131 c 0 3.171 2.57 5.741 5.741 5.741 h 78.518 c 3.171 0 5.741 -2.57 5.741 -5.741 V 62.06 v -2 V 29.94 v -2 v -6.131 C 90 18.638 87.43 16.068 84.259 16.068 z" style="stroke: none; stroke-width: 1; stroke-dasharray: none; stroke-linecap: butt; stroke-linejoin: miter; stroke-miterlimit: 10; fill: rgb(59,55,55); fill-rule: nonzero; opacity: 1;" transform=" matrix(1 0 0 1 0 0) " stroke-linecap="round" />	<path d="M 19.895 65.192 v -4.057 c 0 -1.552 -0.945 -2.568 -2.568 -2.568 c -0.811 0 -1.694 0.268 -2.3 1.15 c -0.473 -0.74 -1.15 -1.15 -2.166 -1.15 c -0.677 0 -1.355 0.205 -1.891 0.945 v -0.811 H 9.552 v 6.491 h 1.418 v -3.584 c 0 -1.15 0.607 -1.694 1.552 -1.694 c 0.945 0 1.418 0.607 1.418 1.694 v 3.584 h 1.418 v -3.584 c 0 -1.15 0.677 -1.694 1.552 -1.694 c 0.945 0 1.418 0.607 1.418 1.694 v 3.584 L 19.895 65.192 L 19.895 65.192 z M 40.928 58.701 h -2.3 V 56.74 H 37.21 v 1.962 h -1.284 v 1.284 h 1.284 v 2.978 c 0 1.489 0.607 2.363 2.229 2.363 c 0.607 0 1.284 -0.205 1.757 -0.473 l -0.41 -1.221 c -0.41 0.268 -0.882 0.339 -1.221 0.339 c -0.677 0 -0.945 -0.41 -0.945 -1.079 v -2.907 h 2.3 v -1.284 H 40.928 z M 52.965 58.559 c -0.811 0 -1.355 0.41 -1.694 0.945 v -0.811 h -1.418 v 6.491 h 1.418 v -3.655 c 0 -1.079 0.473 -1.694 1.355 -1.694 c 0.268 0 0.607 0.071 0.882 0.134 l 0.41 -1.355 C 53.634 58.559 53.232 58.559 52.965 58.559 L 52.965 58.559 z M 34.775 59.237 c -0.677 -0.473 -1.623 -0.677 -2.639 -0.677 c -1.623 0 -2.702 0.811 -2.702 2.095 c 0 1.079 0.811 1.694 2.229 1.891 l 0.677 0.071 c 0.74 0.134 1.15 0.339 1.15 0.677 c 0 0.473 -0.544 0.811 -1.489 0.811 c -0.945 0 -1.694 -0.339 -2.166 -0.677 l -0.677 1.079 c 0.74 0.544 1.757 0.811 2.773 0.811 c 1.891 0 2.978 -0.882 2.978 -2.095 c 0 -1.15 -0.882 -1.757 -2.229 -1.962 l -0.677 -0.071 c -0.607 -0.071 -1.079 -0.205 -1.079 -0.607 c 0 -0.473 0.473 -0.74 1.221 -0.74 c 0.811 0 1.623 0.339 2.032 0.544 L 34.775 59.237 L 34.775 59.237 z M 72.501 58.559 c -0.811 0 -1.355 0.41 -1.694 0.945 v -0.811 h -1.418 v 6.491 h 1.418 v -3.655 c 0 -1.079 0.473 -1.694 1.355 -1.694 c 0.268 0 0.607 0.071 0.882 0.134 l 0.41 -1.339 C 73.178 58.559 72.777 58.559 72.501 58.559 L 72.501 58.559 z M 54.383 61.947 c 0 1.962 1.355 3.379 3.45 3.379 c 0.945 0 1.623 -0.205 2.3 -0.74 l -0.677 -1.15 c -0.544 0.41 -1.079 0.607 -1.694 0.607 c -1.15 0 -1.962 -0.811 -1.962 -2.095 c 0 -1.221 0.811 -2.032 1.962 -2.095 c 0.607 0 1.15 0.205 1.694 0.607 l 0.677 -1.15 c -0.677 -0.544 -1.355 -0.74 -2.3 -0.74 C 55.738 58.559 54.383 59.985 54.383 61.947 L 54.383 61.947 L 54.383 61.947 z M 67.499 61.947 v -3.246 h -1.418 v 0.811 c -0.473 -0.607 -1.15 -0.945 -2.032 -0.945 c -1.828 0 -3.246 1.418 -3.246 3.379 s 1.418 3.379 3.246 3.379 c 0.945 0 1.623 -0.339 2.032 -0.945 v 0.811 h 1.418 V 61.947 L 67.499 61.947 z M 62.292 61.947 c 0 -1.15 0.74 -2.095 1.962 -2.095 c 1.15 0 1.962 0.882 1.962 2.095 c 0 1.15 -0.811 2.095 -1.962 2.095 C 63.04 63.971 62.292 63.089 62.292 61.947 L 62.292 61.947 z M 45.323 58.559 c -1.891 0 -3.246 1.355 -3.246 3.379 c 0 2.032 1.355 3.379 3.316 3.379 c 0.945 0 1.891 -0.268 2.639 -0.882 l -0.677 -1.016 c -0.544 0.41 -1.221 0.677 -1.891 0.677 c -0.882 0 -1.757 -0.41 -1.961 -1.552 h 4.797 c 0 -0.205 0 -0.339 0 -0.544 C 48.364 59.914 47.143 58.559 45.323 58.559 L 45.323 58.559 L 45.323 58.559 z M 45.323 59.78 c 0.882 0 1.489 0.544 1.623 1.552 h -3.379 C 43.701 60.458 44.307 59.78 45.323 59.78 L 45.323 59.78 z M 80.552 61.947 v -5.814 h -1.418 v 3.379 c -0.473 -0.607 -1.15 -0.945 -2.032 -0.945 c -1.828 0 -3.246 1.418 -3.246 3.379 s 1.418 3.379 3.246 3.379 c 0.945 0 1.623 -0.339 2.032 -0.945 v 0.811 h 1.418 V 61.947 L 80.552 61.947 z M 75.345 61.947 c 0 -1.15 0.74 -2.095 1.962 -2.095 c 1.15 0 1.962 0.882 1.962 2.095 c 0 1.15 -0.811 2.095 -1.962 2.095 C 76.085 63.971 75.345 63.089 75.345 61.947 L 75.345 61.947 z M 27.875 61.947 v -3.246 h -1.418 v 0.811 c -0.473 -0.607 -1.15 -0.945 -2.032 -0.945 c -1.828 0 -3.246 1.418 -3.246 3.379 s 1.418 3.379 3.246 3.379 c 0.945 0 1.623 -0.339 2.032 -0.945 v 0.811 h 1.418 V 61.947 L 27.875 61.947 z M 22.605 61.947 c 0 -1.15 0.74 -2.095 1.962 -2.095 c 1.15 0 1.962 0.882 1.962 2.095 c 0 1.15 -0.811 2.095 -1.962 2.095 C 23.345 63.971 22.605 63.089 22.605 61.947 z" style="stroke: none; stroke-width: 1; stroke-dasharray: none; stroke-linecap: butt; stroke-linejoin: miter; stroke-miterlimit: 10; fill: rgb(212,212,212); fill-rule: nonzero; opacity: 1;" transform=" matrix(1 0 0 1 0 0) " stroke-linecap="round" />	<rect x="38.6" y="26.91" rx="0" ry="0" width="12.72" height="22.86" style="stroke: none; stroke-width: 1; stroke-dasharray: none; stroke-linecap: butt; stroke-linejoin: miter; stroke-miterlimit: 10; fill: rgb(255,90,0); fill-rule: nonzero; opacity: 1;" transform=" matrix(1 0 0 1 0 0) " />	<path d="M 39.451 38.339 c 0 -4.645 2.184 -8.767 5.534 -11.43 c -2.466 -1.939 -5.576 -3.111 -8.969 -3.111 c -8.038 0 -14.541 6.503 -14.541 14.541 S 27.978 52.88 36.015 52.88 c 3.393 0 6.503 -1.172 8.969 -3.111 C 41.629 47.143 39.451 42.983 39.451 38.339 z" style="stroke: none; stroke-width: 1; stroke-dasharray: none; stroke-linecap: butt; stroke-linejoin: miter; stroke-miterlimit: 10; fill: rgb(235,0,27); fill-rule: nonzero; opacity: 1;" transform=" matrix(1 0 0 1 0 0) " stroke-linecap="round" />	<path d="M 68.495 38.339 c 0 8.038 -6.503 14.541 -14.541 14.541 c -3.393 0 -6.503 -1.172 -8.969 -3.111 c 3.393 -2.668 5.534 -6.786 5.534 -11.43 s -2.184 -8.767 -5.534 -11.43 c 2.461 -1.939 5.572 -3.111 8.965 -3.111 C 61.992 23.798 68.495 30.343 68.495 38.339 z" style="stroke: none; stroke-width: 1; stroke-dasharray: none; stroke-linecap: butt; stroke-linejoin: miter; stroke-miterlimit: 10; fill: rgb(247,158,27); fill-rule: nonzero; opacity: 1;" transform=" matrix(1 0 0 1 0 0) " stroke-linecap="round" />	<path d="M 4 68.191 V 62.06 v -2 V 29.94 v -2 v -6.131 c 0 -3.171 2.57 -5.741 5.741 -5.741 h -4 C 2.57 16.068 0 18.638 0 21.809 v 6.131 V 62.06 v 6.131 c 0 3.171 2.57 5.741 5.741 5.741 h 4 C 6.57 73.932 4 71.362 4 68.191 z" style="stroke: none; stroke-width: 1; stroke-dasharray: none; stroke-linecap: butt; stroke-linejoin: miter; stroke-miterlimit: 10; fill: rgb(46,42,42); fill-rule: nonzero; opacity: 1;" transform=" matrix(1 0 0 1 0 0) " stroke-linecap="round" /></g></svg></svg>